<?xml version="1.0" standalone="no"?>
<!DOCTYPE svg PUBLIC "-//W3C//DTD SVG 20010904//EN"
 "http://www.w3.org/TR/2001/REC-SVG-20010904/DTD/svg10.dtd">
<svg version="1.0" xmlns="http://www.w3.org/2000/svg"
 width="512.000000pt" height="512.000000pt" viewBox="0 0 512.000000 512.000000"
 preserveAspectRatio="xMidYMid meet">
<metadata>
Created by potrace 1.14, written by Peter Selinger 2001-2017
</metadata>
<g transform="translate(0.000000,512.000000) scale(0.100000,-0.100000)"
fill="#000000" stroke="none">
<path d="M2518 5106 c-10 -7 -21 -24 -26 -37 -4 -13 -8 -563 -8 -1222 1 -792
-2 -1201 -9 -1205 -5 -4 -550 -7 -1210 -8 -660 0 -1209 -3 -1221 -7 -29 -10
-47 -49 -40 -84 14 -61 -62 -57 1266 -58 l1215 0 0 -1215 c1 -928 4 -1220 13
-1237 25 -45 112 -38 129 11 4 12 7 565 8 1231 l0 1210 1210 0 c666 1 1220 4
1231 8 26 9 48 58 41 89 -15 57 45 54 -1269 54 -665 -1 -1209 1 -1209 4 -1 3
-2 547 -3 1210 -1 663 -5 1214 -9 1226 -13 38 -76 55 -109 30z"/>
<path d="M1045 4760 c-22 -5 -52 -11 -66 -13 -187 -35 -417 -195 -528 -367
-70 -108 -98 -176 -138 -335 -10 -41 -11 -242 -2 -300 26 -159 110 -329 222
-450 145 -158 315 -247 537 -281 36 -6 189 -5 232 1 276 38 525 212 655 455
134 251 140 557 16 805 -53 104 -88 151 -178 241 -122 121 -273 202 -441 237
-78 16 -247 20 -309 7z m285 -290 c303 -78 494 -373 444 -685 -37 -236 -248
-448 -486 -490 -39 -7 -174 -8 -203 -2 -163 37 -275 103 -372 219 -109 130
-156 332 -119 501 51 228 234 412 456 462 84 18 197 16 280 -5z"/>
<path d="M3140 4747 c-25 -13 -51 -37 -61 -57 -22 -40 -24 -114 -5 -149 8 -14
155 -166 327 -338 l313 -313 -321 -323 c-298 -299 -322 -325 -330 -367 -26
-128 90 -226 212 -180 17 6 166 147 347 328 l317 316 314 -313 c172 -172 324
-319 338 -327 32 -18 104 -17 142 1 70 33 106 139 72 205 -10 19 -156 172
-326 342 -170 170 -309 312 -309 316 0 4 138 144 306 312 168 168 314 322 325
342 60 117 -35 243 -169 223 -46 -7 -57 -16 -365 -323 -175 -175 -321 -318
-326 -320 -5 -2 -149 137 -320 308 -192 192 -324 317 -346 326 -48 20 -85 18
-135 -9z"/>
<path d="M2239 2919 c-27 -10 -49 -46 -49 -78 0 -35 39 -71 75 -71 70 0 101
85 50 135 -26 27 -36 29 -76 14z"/>
<path d="M2833 2923 c-51 -10 -71 -95 -33 -133 58 -58 152 12 120 89 -9 22
-53 57 -63 50 -1 -1 -12 -4 -24 -6z"/>
<path d="M2211 2324 c-34 -44 -21 -103 28 -124 53 -21 101 16 101 77 0 68 -88
100 -129 47z"/>
<path d="M2800 2328 c-40 -43 -16 -123 40 -131 49 -8 76 16 86 74 11 65 -80
106 -126 57z"/>
<path d="M427 2108 c-105 -22 -159 -140 -106 -227 11 -19 158 -171 325 -338
167 -167 304 -307 304 -311 0 -3 -144 -150 -319 -327 -295 -296 -319 -323
-326 -362 -9 -58 1 -98 36 -138 38 -43 86 -59 147 -50 46 7 57 16 371 329
l323 323 314 -314 c356 -356 374 -369 468 -329 84 35 123 136 83 213 -8 15
-156 168 -328 340 l-313 313 316 318 c174 174 322 330 327 345 16 40 13 103
-4 137 -24 47 -82 80 -138 80 -27 0 -58 -5 -70 -11 -12 -6 -165 -153 -339
-327 l-318 -317 -312 313 c-172 173 -321 318 -331 324 -35 19 -72 25 -110 16z"/>
<path d="M3857 2108 c-450 -38 -797 -420 -799 -878 -1 -355 220 -681 552 -816
164 -66 382 -80 553 -35 79 21 245 97 273 126 9 8 19 15 24 15 19 0 172 162
215 228 169 263 190 604 54 875 -166 327 -505 515 -872 485z m183 -284 c56 -9
46 -7 107 -28 59 -20 151 -77 204 -127 250 -238 250 -637 -1 -873 -331 -311
-870 -160 -991 279 -75 274 59 572 312 693 131 63 232 78 369 56z"/>
</g>
</svg>
